<mxfile host="app.diagrams.net" agent="Mozilla/5.0 (Windows NT 10.0; Win64; x64) AppleWebKit/537.36 (KHTML, like Gecko) Chrome/130.0.0.0 Safari/537.36" version="24.8.3">
  <diagram name="Страница — 1" id="iRmKm3FTo2J0Bs6CdouM">
    <mxGraphModel dx="2261" dy="1908" grid="1" gridSize="10" guides="1" tooltips="1" connect="1" arrows="1" fold="1" page="1" pageScale="1" pageWidth="827" pageHeight="1169" math="0" shadow="0">
      <root>
        <mxCell id="0" />
        <mxCell id="1" parent="0" />
        <mxCell id="2o_G2qfTIGxOlYavcwZY-1" style="edgeStyle=orthogonalEdgeStyle;rounded=0;orthogonalLoop=1;jettySize=auto;html=1;entryX=0.5;entryY=1;entryDx=0;entryDy=0;" edge="1" parent="1" source="2o_G2qfTIGxOlYavcwZY-5" target="2o_G2qfTIGxOlYavcwZY-61">
          <mxGeometry relative="1" as="geometry">
            <mxPoint x="-412.4411764705883" y="-696.5" as="targetPoint" />
          </mxGeometry>
        </mxCell>
        <mxCell id="2o_G2qfTIGxOlYavcwZY-2" value="0.3" style="edgeLabel;html=1;align=center;verticalAlign=middle;resizable=0;points=[];" vertex="1" connectable="0" parent="2o_G2qfTIGxOlYavcwZY-1">
          <mxGeometry x="-0.4455" y="2" relative="1" as="geometry">
            <mxPoint as="offset" />
          </mxGeometry>
        </mxCell>
        <mxCell id="2o_G2qfTIGxOlYavcwZY-3" style="edgeStyle=orthogonalEdgeStyle;rounded=0;orthogonalLoop=1;jettySize=auto;html=1;exitX=0.5;exitY=1;exitDx=0;exitDy=0;" edge="1" parent="1" source="2o_G2qfTIGxOlYavcwZY-5" target="2o_G2qfTIGxOlYavcwZY-57">
          <mxGeometry relative="1" as="geometry" />
        </mxCell>
        <mxCell id="2o_G2qfTIGxOlYavcwZY-4" value="0.2" style="edgeLabel;html=1;align=center;verticalAlign=middle;resizable=0;points=[];" vertex="1" connectable="0" parent="2o_G2qfTIGxOlYavcwZY-3">
          <mxGeometry x="-0.2488" relative="1" as="geometry">
            <mxPoint as="offset" />
          </mxGeometry>
        </mxCell>
        <mxCell id="2o_G2qfTIGxOlYavcwZY-5" value="пейзаж" style="rounded=1;whiteSpace=wrap;html=1;fillColor=#dae8fc;strokeColor=#6c8ebf;" vertex="1" parent="1">
          <mxGeometry x="-521.5" y="-836" width="54" height="26" as="geometry" />
        </mxCell>
        <mxCell id="2o_G2qfTIGxOlYavcwZY-6" style="edgeStyle=orthogonalEdgeStyle;rounded=0;orthogonalLoop=1;jettySize=auto;html=1;" edge="1" parent="1" source="2o_G2qfTIGxOlYavcwZY-14" target="2o_G2qfTIGxOlYavcwZY-53">
          <mxGeometry relative="1" as="geometry" />
        </mxCell>
        <mxCell id="2o_G2qfTIGxOlYavcwZY-7" value="0.1" style="edgeLabel;html=1;align=center;verticalAlign=middle;resizable=0;points=[];" vertex="1" connectable="0" parent="2o_G2qfTIGxOlYavcwZY-6">
          <mxGeometry x="-0.5266" y="2" relative="1" as="geometry">
            <mxPoint as="offset" />
          </mxGeometry>
        </mxCell>
        <mxCell id="2o_G2qfTIGxOlYavcwZY-8" style="edgeStyle=orthogonalEdgeStyle;rounded=0;orthogonalLoop=1;jettySize=auto;html=1;entryX=1;entryY=0.5;entryDx=0;entryDy=0;" edge="1" parent="1" source="2o_G2qfTIGxOlYavcwZY-14" target="2o_G2qfTIGxOlYavcwZY-57">
          <mxGeometry relative="1" as="geometry">
            <Array as="points">
              <mxPoint x="-284.5" y="-741" />
            </Array>
          </mxGeometry>
        </mxCell>
        <mxCell id="2o_G2qfTIGxOlYavcwZY-9" value="0.3" style="edgeLabel;html=1;align=center;verticalAlign=middle;resizable=0;points=[];" vertex="1" connectable="0" parent="2o_G2qfTIGxOlYavcwZY-8">
          <mxGeometry x="-0.1195" y="1" relative="1" as="geometry">
            <mxPoint as="offset" />
          </mxGeometry>
        </mxCell>
        <mxCell id="2o_G2qfTIGxOlYavcwZY-10" style="edgeStyle=orthogonalEdgeStyle;rounded=0;orthogonalLoop=1;jettySize=auto;html=1;" edge="1" parent="1" source="2o_G2qfTIGxOlYavcwZY-14" target="2o_G2qfTIGxOlYavcwZY-58">
          <mxGeometry relative="1" as="geometry" />
        </mxCell>
        <mxCell id="2o_G2qfTIGxOlYavcwZY-11" value="0.3" style="edgeLabel;html=1;align=center;verticalAlign=middle;resizable=0;points=[];" vertex="1" connectable="0" parent="2o_G2qfTIGxOlYavcwZY-10">
          <mxGeometry x="-0.4431" y="1" relative="1" as="geometry">
            <mxPoint as="offset" />
          </mxGeometry>
        </mxCell>
        <mxCell id="2o_G2qfTIGxOlYavcwZY-12" style="edgeStyle=orthogonalEdgeStyle;rounded=0;orthogonalLoop=1;jettySize=auto;html=1;entryX=0.5;entryY=1;entryDx=0;entryDy=0;" edge="1" parent="1" source="2o_G2qfTIGxOlYavcwZY-14" target="2o_G2qfTIGxOlYavcwZY-56">
          <mxGeometry relative="1" as="geometry" />
        </mxCell>
        <mxCell id="2o_G2qfTIGxOlYavcwZY-13" value="0.3" style="edgeLabel;html=1;align=center;verticalAlign=middle;resizable=0;points=[];" vertex="1" connectable="0" parent="2o_G2qfTIGxOlYavcwZY-12">
          <mxGeometry x="-0.3654" y="1" relative="1" as="geometry">
            <mxPoint as="offset" />
          </mxGeometry>
        </mxCell>
        <mxCell id="2o_G2qfTIGxOlYavcwZY-14" value="натюрморт" style="rounded=1;whiteSpace=wrap;html=1;fillColor=#dae8fc;strokeColor=#6c8ebf;" vertex="1" parent="1">
          <mxGeometry x="-316.5" y="-826" width="70" height="37" as="geometry" />
        </mxCell>
        <mxCell id="2o_G2qfTIGxOlYavcwZY-15" style="edgeStyle=orthogonalEdgeStyle;rounded=0;orthogonalLoop=1;jettySize=auto;html=1;entryX=0.5;entryY=1;entryDx=0;entryDy=0;" edge="1" parent="1" source="2o_G2qfTIGxOlYavcwZY-29" target="2o_G2qfTIGxOlYavcwZY-51">
          <mxGeometry relative="1" as="geometry">
            <Array as="points">
              <mxPoint x="-356.5" y="-1083" />
              <mxPoint x="-356.5" y="-1083" />
            </Array>
          </mxGeometry>
        </mxCell>
        <mxCell id="2o_G2qfTIGxOlYavcwZY-16" value="0.2" style="edgeLabel;html=1;align=center;verticalAlign=middle;resizable=0;points=[];" vertex="1" connectable="0" parent="2o_G2qfTIGxOlYavcwZY-15">
          <mxGeometry x="-0.3881" y="1" relative="1" as="geometry">
            <mxPoint as="offset" />
          </mxGeometry>
        </mxCell>
        <mxCell id="2o_G2qfTIGxOlYavcwZY-17" style="edgeStyle=orthogonalEdgeStyle;rounded=0;orthogonalLoop=1;jettySize=auto;html=1;entryX=0.5;entryY=1;entryDx=0;entryDy=0;" edge="1" parent="1" source="2o_G2qfTIGxOlYavcwZY-29" target="2o_G2qfTIGxOlYavcwZY-52">
          <mxGeometry relative="1" as="geometry" />
        </mxCell>
        <mxCell id="2o_G2qfTIGxOlYavcwZY-18" value="0.2" style="edgeLabel;html=1;align=center;verticalAlign=middle;resizable=0;points=[];" vertex="1" connectable="0" parent="2o_G2qfTIGxOlYavcwZY-17">
          <mxGeometry x="-0.783" relative="1" as="geometry">
            <mxPoint as="offset" />
          </mxGeometry>
        </mxCell>
        <mxCell id="2o_G2qfTIGxOlYavcwZY-19" style="edgeStyle=orthogonalEdgeStyle;rounded=0;orthogonalLoop=1;jettySize=auto;html=1;entryX=1;entryY=0.5;entryDx=0;entryDy=0;" edge="1" parent="1" source="2o_G2qfTIGxOlYavcwZY-29" target="2o_G2qfTIGxOlYavcwZY-54">
          <mxGeometry relative="1" as="geometry">
            <Array as="points">
              <mxPoint x="-366.5" y="-974" />
              <mxPoint x="-592.5" y="-974" />
              <mxPoint x="-592.5" y="-929" />
            </Array>
          </mxGeometry>
        </mxCell>
        <mxCell id="2o_G2qfTIGxOlYavcwZY-20" value="0.2" style="edgeLabel;html=1;align=center;verticalAlign=middle;resizable=0;points=[];" vertex="1" connectable="0" parent="2o_G2qfTIGxOlYavcwZY-19">
          <mxGeometry x="-0.8694" y="-1" relative="1" as="geometry">
            <mxPoint as="offset" />
          </mxGeometry>
        </mxCell>
        <mxCell id="2o_G2qfTIGxOlYavcwZY-21" style="edgeStyle=orthogonalEdgeStyle;rounded=0;orthogonalLoop=1;jettySize=auto;html=1;exitX=0.75;exitY=1;exitDx=0;exitDy=0;" edge="1" parent="1" source="2o_G2qfTIGxOlYavcwZY-29" target="2o_G2qfTIGxOlYavcwZY-56">
          <mxGeometry relative="1" as="geometry">
            <Array as="points">
              <mxPoint x="-338.5" y="-886" />
            </Array>
          </mxGeometry>
        </mxCell>
        <mxCell id="2o_G2qfTIGxOlYavcwZY-22" value="0.1" style="edgeLabel;html=1;align=center;verticalAlign=middle;resizable=0;points=[];" vertex="1" connectable="0" parent="2o_G2qfTIGxOlYavcwZY-21">
          <mxGeometry x="-0.7225" y="3" relative="1" as="geometry">
            <mxPoint as="offset" />
          </mxGeometry>
        </mxCell>
        <mxCell id="2o_G2qfTIGxOlYavcwZY-23" style="edgeStyle=orthogonalEdgeStyle;rounded=0;orthogonalLoop=1;jettySize=auto;html=1;entryX=1;entryY=0.5;entryDx=0;entryDy=0;" edge="1" parent="1" source="2o_G2qfTIGxOlYavcwZY-29" target="2o_G2qfTIGxOlYavcwZY-65">
          <mxGeometry relative="1" as="geometry" />
        </mxCell>
        <mxCell id="2o_G2qfTIGxOlYavcwZY-24" value="0.3" style="edgeLabel;html=1;align=center;verticalAlign=middle;resizable=0;points=[];" vertex="1" connectable="0" parent="2o_G2qfTIGxOlYavcwZY-23">
          <mxGeometry x="-0.3563" y="1" relative="1" as="geometry">
            <mxPoint as="offset" />
          </mxGeometry>
        </mxCell>
        <mxCell id="2o_G2qfTIGxOlYavcwZY-25" style="edgeStyle=orthogonalEdgeStyle;rounded=0;orthogonalLoop=1;jettySize=auto;html=1;" edge="1" parent="1" source="2o_G2qfTIGxOlYavcwZY-29" target="2o_G2qfTIGxOlYavcwZY-53">
          <mxGeometry relative="1" as="geometry">
            <Array as="points">
              <mxPoint x="-215.5" y="-1016" />
            </Array>
          </mxGeometry>
        </mxCell>
        <mxCell id="2o_G2qfTIGxOlYavcwZY-26" value="0.2" style="edgeLabel;html=1;align=center;verticalAlign=middle;resizable=0;points=[];" vertex="1" connectable="0" parent="2o_G2qfTIGxOlYavcwZY-25">
          <mxGeometry x="-0.4452" y="-1" relative="1" as="geometry">
            <mxPoint as="offset" />
          </mxGeometry>
        </mxCell>
        <mxCell id="2o_G2qfTIGxOlYavcwZY-27" style="edgeStyle=orthogonalEdgeStyle;rounded=0;orthogonalLoop=1;jettySize=auto;html=1;entryX=1;entryY=0.5;entryDx=0;entryDy=0;" edge="1" parent="1" source="2o_G2qfTIGxOlYavcwZY-29" target="2o_G2qfTIGxOlYavcwZY-61">
          <mxGeometry relative="1" as="geometry">
            <Array as="points">
              <mxPoint x="-351.5" y="-935" />
            </Array>
          </mxGeometry>
        </mxCell>
        <mxCell id="2o_G2qfTIGxOlYavcwZY-28" value="0.1" style="edgeLabel;html=1;align=center;verticalAlign=middle;resizable=0;points=[];" vertex="1" connectable="0" parent="2o_G2qfTIGxOlYavcwZY-27">
          <mxGeometry x="-0.5518" y="-1" relative="1" as="geometry">
            <mxPoint as="offset" />
          </mxGeometry>
        </mxCell>
        <mxCell id="2o_G2qfTIGxOlYavcwZY-29" value="бытовой жанр" style="rounded=1;whiteSpace=wrap;html=1;fillColor=#dae8fc;strokeColor=#6c8ebf;" vertex="1" parent="1">
          <mxGeometry x="-379.5" y="-1046" width="55" height="36" as="geometry" />
        </mxCell>
        <mxCell id="2o_G2qfTIGxOlYavcwZY-30" style="edgeStyle=orthogonalEdgeStyle;rounded=0;orthogonalLoop=1;jettySize=auto;html=1;entryX=1;entryY=0.5;entryDx=0;entryDy=0;" edge="1" parent="1" source="2o_G2qfTIGxOlYavcwZY-36" target="2o_G2qfTIGxOlYavcwZY-51">
          <mxGeometry relative="1" as="geometry">
            <Array as="points">
              <mxPoint x="-271.5" y="-1137" />
              <mxPoint x="-271.5" y="-1137" />
            </Array>
          </mxGeometry>
        </mxCell>
        <mxCell id="2o_G2qfTIGxOlYavcwZY-31" value="0.3" style="edgeLabel;html=1;align=center;verticalAlign=middle;resizable=0;points=[];" vertex="1" connectable="0" parent="2o_G2qfTIGxOlYavcwZY-30">
          <mxGeometry x="0.0088" y="-1" relative="1" as="geometry">
            <mxPoint as="offset" />
          </mxGeometry>
        </mxCell>
        <mxCell id="2o_G2qfTIGxOlYavcwZY-32" style="edgeStyle=orthogonalEdgeStyle;rounded=0;orthogonalLoop=1;jettySize=auto;html=1;entryX=0.5;entryY=0;entryDx=0;entryDy=0;" edge="1" parent="1" source="2o_G2qfTIGxOlYavcwZY-36" target="2o_G2qfTIGxOlYavcwZY-52">
          <mxGeometry relative="1" as="geometry" />
        </mxCell>
        <mxCell id="2o_G2qfTIGxOlYavcwZY-33" value="0.1" style="edgeLabel;html=1;align=center;verticalAlign=middle;resizable=0;points=[];" vertex="1" connectable="0" parent="2o_G2qfTIGxOlYavcwZY-32">
          <mxGeometry x="-0.2304" y="-2" relative="1" as="geometry">
            <mxPoint as="offset" />
          </mxGeometry>
        </mxCell>
        <mxCell id="2o_G2qfTIGxOlYavcwZY-34" style="edgeStyle=orthogonalEdgeStyle;rounded=0;orthogonalLoop=1;jettySize=auto;html=1;entryX=0;entryY=0.5;entryDx=0;entryDy=0;" edge="1" parent="1" source="2o_G2qfTIGxOlYavcwZY-36" target="2o_G2qfTIGxOlYavcwZY-53">
          <mxGeometry relative="1" as="geometry" />
        </mxCell>
        <mxCell id="2o_G2qfTIGxOlYavcwZY-35" value="0.1" style="edgeLabel;html=1;align=center;verticalAlign=middle;resizable=0;points=[];" vertex="1" connectable="0" parent="2o_G2qfTIGxOlYavcwZY-34">
          <mxGeometry x="-0.8019" y="-1" relative="1" as="geometry">
            <mxPoint as="offset" />
          </mxGeometry>
        </mxCell>
        <mxCell id="2o_G2qfTIGxOlYavcwZY-36" value="портрет" style="rounded=1;whiteSpace=wrap;html=1;fillColor=#dae8fc;strokeColor=#6c8ebf;" vertex="1" parent="1">
          <mxGeometry x="-286.5" y="-1154.5" width="53" height="35" as="geometry" />
        </mxCell>
        <mxCell id="2o_G2qfTIGxOlYavcwZY-37" style="edgeStyle=orthogonalEdgeStyle;rounded=0;orthogonalLoop=1;jettySize=auto;html=1;" edge="1" parent="1" source="2o_G2qfTIGxOlYavcwZY-45" target="2o_G2qfTIGxOlYavcwZY-59">
          <mxGeometry relative="1" as="geometry" />
        </mxCell>
        <mxCell id="2o_G2qfTIGxOlYavcwZY-38" value="0.3" style="edgeLabel;html=1;align=center;verticalAlign=middle;resizable=0;points=[];" vertex="1" connectable="0" parent="2o_G2qfTIGxOlYavcwZY-37">
          <mxGeometry x="-0.2306" y="1" relative="1" as="geometry">
            <mxPoint as="offset" />
          </mxGeometry>
        </mxCell>
        <mxCell id="2o_G2qfTIGxOlYavcwZY-39" style="edgeStyle=orthogonalEdgeStyle;rounded=0;orthogonalLoop=1;jettySize=auto;html=1;" edge="1" parent="1" source="2o_G2qfTIGxOlYavcwZY-45" target="2o_G2qfTIGxOlYavcwZY-54">
          <mxGeometry relative="1" as="geometry">
            <Array as="points">
              <mxPoint x="-638.5" y="-1000" />
              <mxPoint x="-638.5" y="-1000" />
            </Array>
          </mxGeometry>
        </mxCell>
        <mxCell id="2o_G2qfTIGxOlYavcwZY-40" value="0.3" style="edgeLabel;html=1;align=center;verticalAlign=middle;resizable=0;points=[];" vertex="1" connectable="0" parent="2o_G2qfTIGxOlYavcwZY-39">
          <mxGeometry x="-0.3877" y="2" relative="1" as="geometry">
            <mxPoint as="offset" />
          </mxGeometry>
        </mxCell>
        <mxCell id="2o_G2qfTIGxOlYavcwZY-41" style="edgeStyle=orthogonalEdgeStyle;rounded=0;orthogonalLoop=1;jettySize=auto;html=1;" edge="1" parent="1" source="2o_G2qfTIGxOlYavcwZY-45" target="2o_G2qfTIGxOlYavcwZY-65">
          <mxGeometry relative="1" as="geometry" />
        </mxCell>
        <mxCell id="2o_G2qfTIGxOlYavcwZY-42" value="0.1" style="edgeLabel;html=1;align=center;verticalAlign=middle;resizable=0;points=[];" vertex="1" connectable="0" parent="2o_G2qfTIGxOlYavcwZY-41">
          <mxGeometry x="0.0385" relative="1" as="geometry">
            <mxPoint y="1" as="offset" />
          </mxGeometry>
        </mxCell>
        <mxCell id="2o_G2qfTIGxOlYavcwZY-43" style="edgeStyle=orthogonalEdgeStyle;rounded=0;orthogonalLoop=1;jettySize=auto;html=1;entryX=0;entryY=0.5;entryDx=0;entryDy=0;" edge="1" parent="1" source="2o_G2qfTIGxOlYavcwZY-45" target="2o_G2qfTIGxOlYavcwZY-61">
          <mxGeometry relative="1" as="geometry">
            <Array as="points">
              <mxPoint x="-614.5" y="-986" />
              <mxPoint x="-579.5" y="-986" />
              <mxPoint x="-579.5" y="-935" />
            </Array>
          </mxGeometry>
        </mxCell>
        <mxCell id="2o_G2qfTIGxOlYavcwZY-44" value="0.1" style="edgeLabel;html=1;align=center;verticalAlign=middle;resizable=0;points=[];" vertex="1" connectable="0" parent="2o_G2qfTIGxOlYavcwZY-43">
          <mxGeometry x="-0.8302" y="1" relative="1" as="geometry">
            <mxPoint as="offset" />
          </mxGeometry>
        </mxCell>
        <mxCell id="2o_G2qfTIGxOlYavcwZY-45" value="анималистика" style="rounded=1;whiteSpace=wrap;html=1;fillColor=#dae8fc;strokeColor=#6c8ebf;" vertex="1" parent="1">
          <mxGeometry x="-678.5" y="-1043" width="97" height="30" as="geometry" />
        </mxCell>
        <mxCell id="2o_G2qfTIGxOlYavcwZY-46" style="edgeStyle=orthogonalEdgeStyle;rounded=0;orthogonalLoop=1;jettySize=auto;html=1;exitX=0.5;exitY=1;exitDx=0;exitDy=0;" edge="1" parent="1" source="2o_G2qfTIGxOlYavcwZY-50" target="2o_G2qfTIGxOlYavcwZY-60">
          <mxGeometry relative="1" as="geometry">
            <Array as="points">
              <mxPoint x="-638.5" y="-776" />
              <mxPoint x="-638.5" y="-776" />
            </Array>
          </mxGeometry>
        </mxCell>
        <mxCell id="2o_G2qfTIGxOlYavcwZY-47" value="0.3" style="edgeLabel;html=1;align=center;verticalAlign=middle;resizable=0;points=[];" vertex="1" connectable="0" parent="2o_G2qfTIGxOlYavcwZY-46">
          <mxGeometry x="-0.1963" y="2" relative="1" as="geometry">
            <mxPoint as="offset" />
          </mxGeometry>
        </mxCell>
        <mxCell id="2o_G2qfTIGxOlYavcwZY-48" style="edgeStyle=orthogonalEdgeStyle;rounded=0;orthogonalLoop=1;jettySize=auto;html=1;entryX=0.5;entryY=1;entryDx=0;entryDy=0;" edge="1" parent="1" source="2o_G2qfTIGxOlYavcwZY-50" target="2o_G2qfTIGxOlYavcwZY-54">
          <mxGeometry relative="1" as="geometry">
            <Array as="points">
              <mxPoint x="-638.5" y="-882" />
              <mxPoint x="-638.5" y="-882" />
            </Array>
          </mxGeometry>
        </mxCell>
        <mxCell id="2o_G2qfTIGxOlYavcwZY-49" value="0.1" style="edgeLabel;html=1;align=center;verticalAlign=middle;resizable=0;points=[];" vertex="1" connectable="0" parent="2o_G2qfTIGxOlYavcwZY-48">
          <mxGeometry x="-0.3253" relative="1" as="geometry">
            <mxPoint as="offset" />
          </mxGeometry>
        </mxCell>
        <mxCell id="2o_G2qfTIGxOlYavcwZY-50" value="городской пейзаж" style="rounded=1;whiteSpace=wrap;html=1;fillColor=#dae8fc;strokeColor=#6c8ebf;" vertex="1" parent="1">
          <mxGeometry x="-699" y="-868.5" width="120" height="25" as="geometry" />
        </mxCell>
        <mxCell id="2o_G2qfTIGxOlYavcwZY-51" value="люди" style="rounded=0;whiteSpace=wrap;html=1;" vertex="1" parent="1">
          <mxGeometry x="-388.5" y="-1155" width="64" height="36" as="geometry" />
        </mxCell>
        <mxCell id="2o_G2qfTIGxOlYavcwZY-52" value="одежда" style="rounded=0;whiteSpace=wrap;html=1;" vertex="1" parent="1">
          <mxGeometry x="-223.5" y="-1103" width="61" height="36" as="geometry" />
        </mxCell>
        <mxCell id="2o_G2qfTIGxOlYavcwZY-53" value="мебель" style="rounded=0;whiteSpace=wrap;html=1;" vertex="1" parent="1">
          <mxGeometry x="-243.5" y="-970" width="55" height="31" as="geometry" />
        </mxCell>
        <mxCell id="2o_G2qfTIGxOlYavcwZY-54" value="домашние животные" style="rounded=0;whiteSpace=wrap;html=1;" vertex="1" parent="1">
          <mxGeometry x="-673.5" y="-948" width="69" height="38" as="geometry" />
        </mxCell>
        <mxCell id="2o_G2qfTIGxOlYavcwZY-55" value="блюда" style="rounded=0;whiteSpace=wrap;html=1;" vertex="1" parent="1">
          <mxGeometry x="-472.5" y="-1119" width="49" height="32.5" as="geometry" />
        </mxCell>
        <mxCell id="2o_G2qfTIGxOlYavcwZY-56" value="плоды" style="rounded=0;whiteSpace=wrap;html=1;" vertex="1" parent="1">
          <mxGeometry x="-306" y="-899" width="49" height="29" as="geometry" />
        </mxCell>
        <mxCell id="2o_G2qfTIGxOlYavcwZY-57" value="цветы" style="rounded=0;whiteSpace=wrap;html=1;" vertex="1" parent="1">
          <mxGeometry x="-520.5" y="-757" width="53" height="31" as="geometry" />
        </mxCell>
        <mxCell id="2o_G2qfTIGxOlYavcwZY-58" value="посуда" style="rounded=0;whiteSpace=wrap;html=1;" vertex="1" parent="1">
          <mxGeometry x="-434.5" y="-901" width="50" height="33" as="geometry" />
        </mxCell>
        <mxCell id="2o_G2qfTIGxOlYavcwZY-59" value="дикие животные" style="rounded=0;whiteSpace=wrap;html=1;" vertex="1" parent="1">
          <mxGeometry x="-661.5" y="-1114" width="63" height="32.75" as="geometry" />
        </mxCell>
        <mxCell id="2o_G2qfTIGxOlYavcwZY-60" value="объекты улицы (транспорт, здания и т.д.)" style="rounded=0;whiteSpace=wrap;html=1;" vertex="1" parent="1">
          <mxGeometry x="-684" y="-790" width="90" height="60" as="geometry" />
        </mxCell>
        <mxCell id="2o_G2qfTIGxOlYavcwZY-61" value="природные объекты и явления" style="rounded=0;whiteSpace=wrap;html=1;" vertex="1" parent="1">
          <mxGeometry x="-533.5" y="-965" width="78" height="60" as="geometry" />
        </mxCell>
        <mxCell id="2o_G2qfTIGxOlYavcwZY-62" value="" style="endArrow=classic;html=1;rounded=0;exitX=0;exitY=0;exitDx=0;exitDy=0;entryX=1;entryY=1;entryDx=0;entryDy=0;" edge="1" parent="1" source="2o_G2qfTIGxOlYavcwZY-29" target="2o_G2qfTIGxOlYavcwZY-55">
          <mxGeometry width="50" height="50" relative="1" as="geometry">
            <mxPoint x="77.5" y="-677.5" as="sourcePoint" />
            <mxPoint x="127.5" y="-727.5" as="targetPoint" />
          </mxGeometry>
        </mxCell>
        <mxCell id="2o_G2qfTIGxOlYavcwZY-63" value="0.1" style="edgeLabel;html=1;align=center;verticalAlign=middle;resizable=0;points=[];" vertex="1" connectable="0" parent="2o_G2qfTIGxOlYavcwZY-62">
          <mxGeometry x="-0.0948" y="1" relative="1" as="geometry">
            <mxPoint x="-1" as="offset" />
          </mxGeometry>
        </mxCell>
        <mxCell id="2o_G2qfTIGxOlYavcwZY-64" style="edgeStyle=orthogonalEdgeStyle;rounded=0;orthogonalLoop=1;jettySize=auto;html=1;exitX=0.5;exitY=1;exitDx=0;exitDy=0;" edge="1" parent="1" source="2o_G2qfTIGxOlYavcwZY-50" target="2o_G2qfTIGxOlYavcwZY-50">
          <mxGeometry relative="1" as="geometry" />
        </mxCell>
        <mxCell id="2o_G2qfTIGxOlYavcwZY-65" value="хозяйственная утварь и инструменты" style="rounded=0;whiteSpace=wrap;html=1;" vertex="1" parent="1">
          <mxGeometry x="-529.5" y="-1058" width="92" height="60" as="geometry" />
        </mxCell>
        <mxCell id="2o_G2qfTIGxOlYavcwZY-66" value="" style="endArrow=classic;html=1;rounded=0;exitX=1;exitY=0;exitDx=0;exitDy=0;entryX=0;entryY=0.5;entryDx=0;entryDy=0;" edge="1" parent="1" source="2o_G2qfTIGxOlYavcwZY-50" target="2o_G2qfTIGxOlYavcwZY-51">
          <mxGeometry width="50" height="50" relative="1" as="geometry">
            <mxPoint x="-380" y="-888.5" as="sourcePoint" />
            <mxPoint x="-330" y="-938.5" as="targetPoint" />
            <Array as="points">
              <mxPoint x="-576" y="-1136.5" />
            </Array>
          </mxGeometry>
        </mxCell>
        <mxCell id="2o_G2qfTIGxOlYavcwZY-67" value="0.1" style="edgeLabel;html=1;align=center;verticalAlign=middle;resizable=0;points=[];" vertex="1" connectable="0" parent="2o_G2qfTIGxOlYavcwZY-66">
          <mxGeometry x="-0.9188" relative="1" as="geometry">
            <mxPoint as="offset" />
          </mxGeometry>
        </mxCell>
        <mxCell id="2o_G2qfTIGxOlYavcwZY-68" value="" style="shape=umlLifeline;perimeter=lifelinePerimeter;whiteSpace=wrap;html=1;container=1;dropTarget=0;collapsible=0;recursiveResize=0;outlineConnect=0;portConstraint=eastwest;newEdgeStyle={&quot;curved&quot;:0,&quot;rounded&quot;:0};participant=umlEntity;" vertex="1" parent="1">
          <mxGeometry x="189.5" y="-1097.5" width="40" height="437.5" as="geometry" />
        </mxCell>
        <mxCell id="2o_G2qfTIGxOlYavcwZY-69" value="" style="html=1;points=[[0,0,0,0,5],[0,1,0,0,-5],[1,0,0,0,5],[1,1,0,0,-5]];perimeter=orthogonalPerimeter;outlineConnect=0;targetShapes=umlLifeline;portConstraint=eastwest;newEdgeStyle={&quot;curved&quot;:0,&quot;rounded&quot;:0};" vertex="1" parent="2o_G2qfTIGxOlYavcwZY-68">
          <mxGeometry x="15.5" y="53" width="10" height="80" as="geometry" />
        </mxCell>
        <mxCell id="2o_G2qfTIGxOlYavcwZY-70" value="" style="html=1;points=[[0,0,0,0,5],[0,1,0,0,-5],[1,0,0,0,5],[1,1,0,0,-5]];perimeter=orthogonalPerimeter;outlineConnect=0;targetShapes=umlLifeline;portConstraint=eastwest;newEdgeStyle={&quot;curved&quot;:0,&quot;rounded&quot;:0};" vertex="1" parent="2o_G2qfTIGxOlYavcwZY-68">
          <mxGeometry x="19.5" y="303.5" width="10" height="80" as="geometry" />
        </mxCell>
        <mxCell id="2o_G2qfTIGxOlYavcwZY-71" value="" style="html=1;points=[[0,0,0,0,5],[0,1,0,0,-5],[1,0,0,0,5],[1,1,0,0,-5]];perimeter=orthogonalPerimeter;outlineConnect=0;targetShapes=umlLifeline;portConstraint=eastwest;newEdgeStyle={&quot;curved&quot;:0,&quot;rounded&quot;:0};" vertex="1" parent="2o_G2qfTIGxOlYavcwZY-68">
          <mxGeometry x="-171.5" y="325.5" width="10" height="80" as="geometry" />
        </mxCell>
        <mxCell id="2o_G2qfTIGxOlYavcwZY-72" value="" style="html=1;verticalAlign=bottom;endArrow=block;curved=0;rounded=0;" edge="1" parent="2o_G2qfTIGxOlYavcwZY-68">
          <mxGeometry width="80" relative="1" as="geometry">
            <mxPoint x="-67.5" y="339.5" as="sourcePoint" />
            <mxPoint x="23.499999999999545" y="339.5" as="targetPoint" />
          </mxGeometry>
        </mxCell>
        <mxCell id="2o_G2qfTIGxOlYavcwZY-73" value="ответ о завершении" style="html=1;verticalAlign=bottom;endArrow=open;dashed=1;endSize=8;curved=0;rounded=0;" edge="1" parent="2o_G2qfTIGxOlYavcwZY-68">
          <mxGeometry relative="1" as="geometry">
            <mxPoint x="-76.17000000000007" y="374.5" as="sourcePoint" />
            <mxPoint x="-168.3366666666666" y="374.5" as="targetPoint" />
          </mxGeometry>
        </mxCell>
        <mxCell id="2o_G2qfTIGxOlYavcwZY-74" value="определение жанра" style="text;html=1;strokeColor=none;fillColor=none;align=center;verticalAlign=middle;whiteSpace=wrap;rounded=0;" vertex="1" parent="2o_G2qfTIGxOlYavcwZY-68">
          <mxGeometry x="-25.499999999999872" y="268.5" width="51" height="21" as="geometry" />
        </mxCell>
        <mxCell id="2o_G2qfTIGxOlYavcwZY-75" value="запрос на ассоциирование изображения с жанром" style="text;html=1;strokeColor=none;fillColor=none;align=center;verticalAlign=middle;whiteSpace=wrap;rounded=0;" vertex="1" parent="2o_G2qfTIGxOlYavcwZY-68">
          <mxGeometry x="-49.3900000000001" y="352.5" width="60" height="30" as="geometry" />
        </mxCell>
        <mxCell id="2o_G2qfTIGxOlYavcwZY-76" value="" style="shape=umlDestroy;whiteSpace=wrap;html=1;strokeWidth=3;targetShapes=umlLifeline;" vertex="1" parent="2o_G2qfTIGxOlYavcwZY-68">
          <mxGeometry x="-84.5" y="407.5" width="30" height="30" as="geometry" />
        </mxCell>
        <mxCell id="2o_G2qfTIGxOlYavcwZY-77" value="" style="html=1;points=[[0,0,0,0,5],[0,1,0,0,-5],[1,0,0,0,5],[1,1,0,0,-5]];perimeter=orthogonalPerimeter;outlineConnect=0;targetShapes=umlLifeline;portConstraint=eastwest;newEdgeStyle={&quot;curved&quot;:0,&quot;rounded&quot;:0};" vertex="1" parent="2o_G2qfTIGxOlYavcwZY-68">
          <mxGeometry x="15" y="162.5" width="10" height="80" as="geometry" />
        </mxCell>
        <mxCell id="2o_G2qfTIGxOlYavcwZY-78" value="запрос жанров &lt;br&gt;и категорий" style="html=1;verticalAlign=bottom;endArrow=block;curved=0;rounded=0;entryX=0;entryY=0;entryDx=0;entryDy=5;" edge="1" parent="2o_G2qfTIGxOlYavcwZY-68" target="2o_G2qfTIGxOlYavcwZY-77">
          <mxGeometry relative="1" as="geometry">
            <mxPoint x="-66.5" y="166.5" as="sourcePoint" />
          </mxGeometry>
        </mxCell>
        <mxCell id="2o_G2qfTIGxOlYavcwZY-79" value="" style="shape=umlLifeline;perimeter=lifelinePerimeter;whiteSpace=wrap;html=1;container=1;dropTarget=0;collapsible=0;recursiveResize=0;outlineConnect=0;portConstraint=eastwest;newEdgeStyle={&quot;curved&quot;:0,&quot;rounded&quot;:0};participant=umlControl;" vertex="1" parent="1">
          <mxGeometry x="101" y="-1092.25" width="40" height="427" as="geometry" />
        </mxCell>
        <mxCell id="2o_G2qfTIGxOlYavcwZY-80" value="" style="html=1;points=[[0,0,0,0,5],[0,1,0,0,-5],[1,0,0,0,5],[1,1,0,0,-5]];perimeter=orthogonalPerimeter;outlineConnect=0;targetShapes=umlLifeline;portConstraint=eastwest;newEdgeStyle={&quot;curved&quot;:0,&quot;rounded&quot;:0};" vertex="1" parent="2o_G2qfTIGxOlYavcwZY-79">
          <mxGeometry x="15" y="50.5" width="10" height="342.5" as="geometry" />
        </mxCell>
        <mxCell id="2o_G2qfTIGxOlYavcwZY-81" value="" style="html=1;points=[[0,0,0,0,5],[0,1,0,0,-5],[1,0,0,0,5],[1,1,0,0,-5]];perimeter=orthogonalPerimeter;outlineConnect=0;targetShapes=umlLifeline;portConstraint=eastwest;newEdgeStyle={&quot;curved&quot;:0,&quot;rounded&quot;:0};" vertex="1" parent="2o_G2qfTIGxOlYavcwZY-79">
          <mxGeometry x="19" y="289" width="10" height="40" as="geometry" />
        </mxCell>
        <mxCell id="2o_G2qfTIGxOlYavcwZY-82" value="" style="html=1;align=left;spacingLeft=2;endArrow=block;rounded=0;edgeStyle=orthogonalEdgeStyle;curved=0;rounded=0;" edge="1" parent="2o_G2qfTIGxOlYavcwZY-79" target="2o_G2qfTIGxOlYavcwZY-81">
          <mxGeometry x="0.4118" y="-164" relative="1" as="geometry">
            <mxPoint x="24" y="269" as="sourcePoint" />
            <Array as="points">
              <mxPoint x="54" y="299" />
            </Array>
            <mxPoint x="164" y="164" as="offset" />
          </mxGeometry>
        </mxCell>
        <mxCell id="2o_G2qfTIGxOlYavcwZY-83" value="" style="shape=umlLifeline;perimeter=lifelinePerimeter;whiteSpace=wrap;html=1;container=1;dropTarget=0;collapsible=0;recursiveResize=0;outlineConnect=0;portConstraint=eastwest;newEdgeStyle={&quot;curved&quot;:0,&quot;rounded&quot;:0};participant=umlControl;" vertex="1" parent="1">
          <mxGeometry x="-1" y="-1095" width="40" height="347.5" as="geometry" />
        </mxCell>
        <mxCell id="2o_G2qfTIGxOlYavcwZY-84" value="" style="html=1;points=[[0,0,0,0,5],[0,1,0,0,-5],[1,0,0,0,5],[1,1,0,0,-5]];perimeter=orthogonalPerimeter;outlineConnect=0;targetShapes=umlLifeline;portConstraint=eastwest;newEdgeStyle={&quot;curved&quot;:0,&quot;rounded&quot;:0};" vertex="1" parent="2o_G2qfTIGxOlYavcwZY-83">
          <mxGeometry x="15" y="50" width="10" height="80" as="geometry" />
        </mxCell>
        <mxCell id="2o_G2qfTIGxOlYavcwZY-85" value="Общий событийный агент" style="text;html=1;strokeColor=none;fillColor=none;align=center;verticalAlign=middle;whiteSpace=wrap;rounded=0;" vertex="1" parent="1">
          <mxGeometry x="-10" y="-1137.5" width="60" height="30" as="geometry" />
        </mxCell>
        <mxCell id="2o_G2qfTIGxOlYavcwZY-86" value="Агент определения жанра" style="text;html=1;strokeColor=none;fillColor=none;align=center;verticalAlign=middle;whiteSpace=wrap;rounded=0;" vertex="1" parent="1">
          <mxGeometry x="86" y="-1139.5" width="60" height="30" as="geometry" />
        </mxCell>
        <mxCell id="2o_G2qfTIGxOlYavcwZY-87" value="БЗ" style="text;html=1;strokeColor=none;fillColor=none;align=center;verticalAlign=middle;whiteSpace=wrap;rounded=0;" vertex="1" parent="1">
          <mxGeometry x="179.5" y="-1140" width="60" height="30" as="geometry" />
        </mxCell>
        <mxCell id="2o_G2qfTIGxOlYavcwZY-88" value="возврат тегов" style="html=1;verticalAlign=bottom;endArrow=open;dashed=1;endSize=8;curved=0;rounded=0;" edge="1" parent="1" source="2o_G2qfTIGxOlYavcwZY-69">
          <mxGeometry relative="1" as="geometry">
            <mxPoint x="205" y="-993.25" as="sourcePoint" />
            <mxPoint x="124" y="-976" as="targetPoint" />
          </mxGeometry>
        </mxCell>
        <mxCell id="2o_G2qfTIGxOlYavcwZY-89" value="" style="html=1;verticalAlign=bottom;endArrow=block;curved=0;rounded=0;entryX=0.463;entryY=0.275;entryDx=0;entryDy=0;entryPerimeter=0;" edge="1" parent="1">
          <mxGeometry width="80" relative="1" as="geometry">
            <mxPoint x="127" y="-998" as="sourcePoint" />
            <mxPoint x="204.01999999999998" y="-1000.4975" as="targetPoint" />
          </mxGeometry>
        </mxCell>
        <mxCell id="2o_G2qfTIGxOlYavcwZY-90" value="вызов агента" style="html=1;verticalAlign=bottom;endArrow=block;curved=0;rounded=0;entryX=0.458;entryY=0.232;entryDx=0;entryDy=0;entryPerimeter=0;" edge="1" parent="1">
          <mxGeometry width="80" relative="1" as="geometry">
            <mxPoint x="18.590909090909463" y="-1020.9959999999996" as="sourcePoint" />
            <mxPoint x="114.32000000000016" y="-1020.9959999999996" as="targetPoint" />
          </mxGeometry>
        </mxCell>
        <mxCell id="2o_G2qfTIGxOlYavcwZY-91" value="запрос выделенных тегов" style="text;html=1;strokeColor=none;fillColor=none;align=center;verticalAlign=middle;whiteSpace=wrap;rounded=0;" vertex="1" parent="1">
          <mxGeometry x="133" y="-1039.5" width="60" height="30" as="geometry" />
        </mxCell>
        <mxCell id="2o_G2qfTIGxOlYavcwZY-92" value="возврат жанров&lt;br&gt;&amp;nbsp;и категорий" style="html=1;verticalAlign=bottom;endArrow=open;dashed=1;endSize=8;curved=0;rounded=0;exitX=0;exitY=1;exitDx=0;exitDy=-5;" edge="1" parent="1">
          <mxGeometry relative="1" as="geometry">
            <mxPoint x="120.75" y="-886" as="targetPoint" />
            <mxPoint x="205.25" y="-885" as="sourcePoint" />
          </mxGeometry>
        </mxCell>
      </root>
    </mxGraphModel>
  </diagram>
</mxfile>
